<mxfile host="app.diagrams.net" modified="2023-09-07T13:04:40.439Z" agent="Mozilla/5.0 (Windows NT 10.0; Win64; x64) AppleWebKit/537.36 (KHTML, like Gecko) Chrome/116.0.0.0 Safari/537.36" version="21.7.2" etag="cPP32QiC_SFFkRTq0yKr" type="github">
  <diagram name="Sayfa -1" id="6q0h_izBlqHGIDwQ1uVk">
    <mxGraphModel>
      <root>
        <mxCell id="0" />
        <mxCell id="1" parent="0" />
      </root>
    </mxGraphModel>
  </diagram>
</mxfile>
